<?xml version="1.0" encoding="UTF-8" standalone="no"?>
<!-- Generator: Adobe Illustrator 9.0, SVG Export Plug-In  -->
<svg id="svg2" xmlns:rdf="http://www.w3.org/1999/02/22-rdf-syntax-ns#" xmlns="http://www.w3.org/2000/svg" xml:space="preserve" height="48" width="48" version="1.0" xmlns:cc="http://creativecommons.org/ns#" xmlns:dc="http://purl.org/dc/elements/1.1/" viewBox="0 0 48 48"><metadata id="metadata25"><rdf:RDF><cc:Work rdf:about=""><dc:format>image/svg+xml</dc:format><dc:type rdf:resource="http://purl.org/dc/dcmitype/StillImage"/></cc:Work></rdf:RDF></metadata>
	<path id="path9" stroke-linejoin="round" d="m43.777 42.541h-34.61l-4.9443-4.9443v-33.374h39.555v38.319z" stroke="#0f1948" stroke-linecap="round" stroke-width="6" fill="none"/><path id="path11" d="m43.53 42.17h-34.363l-4.6971-4.6971v-32.262h39.06v36.959z" stroke="#0f1948" fill="#0f1948"/>
	<g id="crop_x0020_marks" transform="matrix(1.2361 0 0 1.2361 -5.666 -5.666)" stroke="#000" stroke-width=".80901">
		<path id="path20" fill="none" d="m48 48h-48v-48h48v48z"/>
	</g>
<path id="path13" d="m22.121 5.5824c0-0.24722-0.24722-0.24722-0.49443-0.12361l-13.597 13.72c-0.49443 0.49443-0.24722 0.98887 0 1.2361l13.72 14.463c0.12361 0.12361 0.37082 0 0.37082-0.12361l-0.49443-9.3942 6.1804 0.65043c1.2361 0 2.4722 1.2037 2.4722 4.2939v3.7082c0 3.5846-6.1804 3.8319-6.1804 4.9443 0 1.1125 2.4722 2.4722 2.4722 2.4722h3.7082c4.9443 0 7.4165-5.3152 7.4165-9.8887v-6.1804c0-7.4165-4.0791-11.125-10.012-11.125h-6.0568l0.49443-8.6526z" fill="#fff"/></svg>
