<?xml version="1.0" encoding="UTF-8" standalone="no"?>
<!-- Generator: Adobe Illustrator 9.0, SVG Export Plug-In  -->

<svg
   xmlns:dc="http://purl.org/dc/elements/1.1/"
   xmlns:cc="http://creativecommons.org/ns#"
   xmlns:rdf="http://www.w3.org/1999/02/22-rdf-syntax-ns#"
   xmlns:svg="http://www.w3.org/2000/svg"
   xmlns="http://www.w3.org/2000/svg"
   xmlns:sodipodi="http://sodipodi.sourceforge.net/DTD/sodipodi-0.dtd"
   xmlns:inkscape="http://www.inkscape.org/namespaces/inkscape"
   id="svg2"
   xml:space="preserve"
   height="48pt"
   width="48pt"
   version="1.1"
   viewBox="0 0 48 48"
   inkscape:version="0.48.3.1 r9886"
   sodipodi:docname="information-active.svg"><defs
   id="defs20" /><sodipodi:namedview
   pagecolor="#ffffff"
   bordercolor="#666666"
   borderopacity="1"
   objecttolerance="10"
   gridtolerance="10"
   guidetolerance="10"
   inkscape:pageopacity="0"
   inkscape:pageshadow="2"
   inkscape:window-width="586"
   inkscape:window-height="412"
   id="namedview18"
   showgrid="false"
   inkscape:zoom="3.9333333"
   inkscape:cx="30"
   inkscape:cy="30"
   inkscape:window-x="0"
   inkscape:window-y="27"
   inkscape:window-maximized="0"
   inkscape:current-layer="svg2" /><metadata
   id="metadata38"><rdf:RDF><cc:Work
       rdf:about=""><dc:format>image/svg+xml</dc:format><dc:type
         rdf:resource="http://purl.org/dc/dcmitype/StillImage" /><dc:title /></cc:Work></rdf:RDF></metadata>
	<path
   id="path7"
   d="m9.5 18.6c0 8 6.5 14.4 14.4 14.4 8 0 14.4-6.5 14.4-14.4 0-8-6.5-14.4-14.4-14.4-8 0-14.4 6.5-14.4 14.4zm3.3 0c0-6.2 5-11.2 11.2-11.2s11.2 5 11.2 11.2-5 11.2-11.2 11.2-11.2-5-11.2-11.2z"
   fill="#fff" /><path
   id="path9"
   d="m28.1 37.9-7.6 0.8c-0.9 0.1-1.5 0.9-1.4 1.8s0.9 1.5 1.8 1.4l7.6-0.8c0.9-0.1 1.5-0.9 1.4-1.8s-0.9-1.5-1.8-1.4z"
   fill="#fff" /><path
   id="path11"
   d="m28.1 34.8-7.6 0.8c-0.9 0.1-1.5 0.9-1.4 1.8s0.9 1.5 1.8 1.4l7.6-0.8c0.9-0.1 1.5-0.9 1.4-1.8s-0.9-1.5-1.8-1.4z"
   fill="#fff" /><path
   id="path13"
   d="m28.1 31.6-7.6 0.8c-0.9 0.1-1.5 0.9-1.4 1.8s0.9 1.5 1.8 1.4l7.6-0.8c0.9-0.1 1.5-0.9 1.4-1.8s-0.9-1.5-1.8-1.4z"
   fill="#fff" /><path
   id="path15"
   d="m23.1 41.3v0.9c0 0.9 0.7 1.6 1.6 1.6s1.6-0.7 1.6-1.6v-0.9h-3.3z"
   fill="#fff" /><path
   id="path17"
   d="m35.9 18.7c0 6.6-5.4 12-12 12s-12-5.4-12-12 5.4-12 12-12 12 5.4 12 12z"
   fill="#fff" /><path
   id="path19"
   d="m9.6 18.6c0 8 6.5 14.4 14.4 14.4 8 0 14.4-6.5 14.4-14.4 0-8-6.5-14.4-14.4-14.4-8 0-14.4 6.5-14.4 14.4zm3.3 0c0-6.2 5-11.2 11.2-11.2s11.2 5 11.2 11.2-5 11.2-11.2 11.2-11.2-5-11.2-11.2z"
   fill="#fff" /><path
   id="path21"
   d="m28.2 37.9-7.6 0.8c-0.9 0.1-1.5 0.9-1.4 1.8s0.9 1.5 1.8 1.4l7.6-0.8c0.9-0.1 1.5-0.9 1.4-1.8s-0.9-1.5-1.8-1.4z"
   fill="#fff" /><path
   id="path23"
   d="m28.2 34.7-7.6 0.8c-0.9 0.1-1.5 0.9-1.4 1.8s0.9 1.5 1.8 1.4l7.6-0.8c0.9-0.1 1.5-0.9 1.4-1.8s-0.9-1.5-1.8-1.4z"
   fill="#fff" /><path
   id="path25"
   d="m28.2 31.6-7.6 0.8c-0.9 0.1-1.5 0.9-1.4 1.8s0.9 1.5 1.8 1.4l7.6-0.8c0.9-0.1 1.5-0.9 1.4-1.8s-0.9-1.5-1.8-1.4z"
   fill="#fff" /><path
   id="path27"
   d="m23.1 41.3v0.9c0 0.9 0.7 1.6 1.6 1.6s1.6-0.7 1.6-1.6v-0.9h-3.3z"
   fill="#fff" /><path
   id="path29"
   d="m22.3 28.3-3.5-10.7s6.6 3.9 10.5 0"
   stroke="#0f1948"
   stroke-width="1.0944"
   fill="none" />
	
</svg>