<?xml version="1.0" encoding="UTF-8" standalone="no"?>
<!-- Generator: Adobe Illustrator 9.0, SVG Export Plug-In  -->
<svg id="svg2" xmlns:rdf="http://www.w3.org/1999/02/22-rdf-syntax-ns#" xmlns="http://www.w3.org/2000/svg" xml:space="preserve" height="48" width="48" version="1.0" xmlns:cc="http://creativecommons.org/ns#" xmlns:dc="http://purl.org/dc/elements/1.1/" viewBox="0 0 48 48"><metadata id="metadata25"><rdf:RDF><cc:Work rdf:about=""><dc:format>image/svg+xml</dc:format><dc:type rdf:resource="http://purl.org/dc/dcmitype/StillImage"/></cc:Work></rdf:RDF></metadata>
	<path id="path9" stroke-linejoin="round" d="m40 39h-28l-4-4v-27h32v31z" stroke="#0d3542" stroke-linecap="round" stroke-width="6" fill="#0d3542"/><path id="path11" d="m39.8 38.7h-27.8l-3.8-3.8v-26.1h31.6v29.9z" fill="#0d3542"/><path id="path13" d="m33 37c0 1.1-0.9 2-2 2h-17c-1.1 0-2-0.9-2-2v-9c0-1.1 0.9-2 2-2h17c1.1 0 2 0.9 2 2v9z" fill="#96c1cf"/><path id="path15" d="m21 37h-6v-9h6v9z" fill="#0d3542"/><path id="path17" d="m38 22h-28v-13h28v13z" fill="#96c1cf"/>
	<g id="crop_x0020_marks" stroke="#000">
		<path id="path20" fill="none" d="m48 48h-48v-48h48v48z"/>
	</g>
</svg>
