<?xml version="1.0" encoding="UTF-8" standalone="no"?>
<!-- Created with Inkscape (http://www.inkscape.org/) -->
<svg id="svg249" xmlns:rdf="http://www.w3.org/1999/02/22-rdf-syntax-ns#" xmlns="http://www.w3.org/2000/svg" height="48" width="48" version="1.1" xmlns:cc="http://creativecommons.org/ns#" xmlns:dc="http://purl.org/dc/elements/1.1/">
 <metadata id="metadata4">
  <rdf:RDF>
   <cc:Work rdf:about="">
    <dc:format>image/svg+xml</dc:format>
    <dc:type rdf:resource="http://purl.org/dc/dcmitype/StillImage"/>
    <dc:title/>
    <dc:subject>
     <rdf:Bag/>
    </dc:subject>
    <cc:license rdf:resource="http://creativecommons.org/licenses/LGPL/2.1/"/>
    <dc:creator>
     <cc:Agent>
      <dc:title/>
     </cc:Agent>
    </dc:creator>
    <dc:source/>
    <dc:contributor>
     <cc:Agent>
      <dc:title/>
     </cc:Agent>
    </dc:contributor>
    <dc:date/>
   </cc:Work>
   <cc:License rdf:about="http://creativecommons.org/licenses/LGPL/2.1/">
    <cc:permits rdf:resource="http://web.resource.org/cc/Reproduction"/>
    <cc:permits rdf:resource="http://web.resource.org/cc/Distribution"/>
    <cc:requires rdf:resource="http://web.resource.org/cc/Notice"/>
    <cc:permits rdf:resource="http://web.resource.org/cc/DerivativeWorks"/>
    <cc:requires rdf:resource="http://web.resource.org/cc/ShareAlike"/>
    <cc:requires rdf:resource="http://web.resource.org/cc/SourceCode"/>
   </cc:License>
  </rdf:RDF>
 </metadata>
 <g id="layer5">
  <rect id="rect1493" height="48" width="48" y="0" x="0" fill="none"/>
  <path id="path3244" fill="none" d="m40 20a20 20 0 1 1 -40 0 20 20 0 1 1 40 0z" transform="matrix(-1 0 0 1 48.013 0)"/>
  <path id="path2682" style="color:#000000" d="m18.513 29.5-2 6.5-7 7.5c-0.48247 0.51693-2.7322 1.2678-4.5-0.5-1.5-1.5-1.0333-4.0022-0.5-4.5l7.5-7 6.5-2z" fill="none"/>
  <path id="path4119" d="m36 20a16 16 0 1 1 -32 0 16 16 0 1 1 32 0z" transform="matrix(-1 0 0 1 48.013 0)" fill="#fff"/>
  <path id="path15511" style="color:#000000" d="m18.513 29.5-2 6.5-7 7.5c-0.48247 0.51693-2.7322 1.2678-4.5-0.5-1.5-1.5-1.0333-4.0022-0.5-4.5l7.5-7 6.5-2z" fill="#fff"/>
 </g>
</svg>
